<?xml version="1.0" standalone="no"?>
<!DOCTYPE svg PUBLIC "-//W3C//DTD SVG 20010904//EN"
 "http://www.w3.org/TR/2001/REC-SVG-20010904/DTD/svg10.dtd">
<svg version="1.0" xmlns="http://www.w3.org/2000/svg"
 width="184.000000pt" height="200.000000pt" viewBox="0 0 184.000000 200.000000"
 preserveAspectRatio="xMidYMid meet">

<g transform="translate(0.000000,200.000000) scale(0.100000,-0.100000)"
fill="#000000" stroke="none">
<path d="M720 1993 c-37 -15 -72 -48 -91 -86 -21 -40 -21 -49 -14 -317 7 -291
11 -316 58 -358 38 -35 76 -40 257 -28 l165 11 3 33 c2 17 0 32 -5 33 -4 0
-82 6 -173 12 l-165 12 4 265 c2 146 6 267 8 270 2 2 82 6 178 8 l173 4 6
-113 c4 -63 10 -181 15 -264 8 -141 8 -152 -11 -178 -26 -37 -21 -71 12 -75
33 -4 77 38 89 86 5 20 15 154 22 298 l12 261 -24 44 c-43 78 -64 84 -299 86
-113 1 -212 0 -220 -4z"/>
<path d="M386 868 c-117 -118 -172 -153 -256 -163 -99 -13 -108 -15 -113 -35
-3 -10 1 -27 7 -36 11 -14 27 -16 107 -12 112 6 178 29 264 93 32 25 60 43 61
42 1 -1 -3 -56 -9 -122 -10 -113 2 -409 19 -471 5 -18 -1 -21 -69 -32 -112
-17 -127 -25 -127 -66 0 -33 1 -34 65 -50 89 -22 300 -21 375 2 50 16 55 20
58 50 4 38 -13 47 -126 65 l-73 12 8 85 c4 47 8 180 8 295 l-1 211 61 -46 c75
-57 146 -88 227 -99 132 -18 269 22 374 109 26 22 49 38 50 37 2 -2 -1 -64 -5
-140 -8 -124 -4 -248 15 -398 l6 -55 -74 -12 c-113 -17 -128 -25 -128 -66 0
-33 1 -34 65 -50 89 -22 285 -22 371 1 64 17 64 17 64 54 l0 36 -75 16 c-42
10 -87 17 -102 17 -25 0 -26 1 -19 48 12 79 25 294 21 337 -3 22 -7 84 -10
138 l-5 98 53 -40 c92 -69 157 -94 269 -99 l98 -5 0 36 c0 40 -1 40 -90 52
-90 11 -148 48 -260 165 -72 75 -112 110 -127 110 -14 0 -65 -38 -135 -100
-138 -123 -183 -143 -303 -138 -109 4 -165 33 -288 148 -61 57 -105 90 -119
90 -14 0 -58 -37 -132 -112z"/>
</g>
</svg>
